<svg xmlns="http://www.w3.org/2000/svg" viewBox="0 0 240 360" role="img" aria-label="Apo girl locked outfit: Sunday dress">
  <title>Apo (girl) — Sunday Dress, locked Lv. 8</title>
  <defs>
    <radialGradient id="dskin" cx="42%" cy="34%" r="75%">
      <stop offset="0%" stop-color="#d29a68"/>
      <stop offset="60%" stop-color="#c08a58"/>
      <stop offset="100%" stop-color="#a96f42"/>
    </radialGradient>
    <linearGradient id="sunday" x1="0" y1="0" x2="0" y2="1">
      <stop offset="0%" stop-color="#f0d795"/>
      <stop offset="100%" stop-color="#d9ae62"/>
    </linearGradient>
    <linearGradient id="dhair" x1="0" y1="0" x2="0" y2="1">
      <stop offset="0%" stop-color="#4a382a"/>
      <stop offset="100%" stop-color="#2e2318"/>
    </linearGradient>
  </defs>
  <ellipse cx="120" cy="332" rx="54" ry="10" fill="#6b5a44" opacity="0.18"/>
  <path d="M84 60 q-4 56 3 90 q2 8 10 8 l4 0 q6 0 6 -8 l-1 -26 28 0 -1 26 q0 8 6 8 l4 0 q8 0 10 -8 q7 -34 3 -90 q-6 -30 -36 -30 q-30 0 -36 30 z" fill="url(#dhair)" stroke="#5a4632" stroke-opacity="0.4" stroke-width="2" stroke-linejoin="round"/>
  <path d="M102 258 q-2 32 -1 56 q0 8 8 8 q8 0 8 -8 q1 -24 1 -56 z" fill="url(#dskin)" stroke="#5a4632" stroke-opacity="0.5" stroke-width="2.5" stroke-linejoin="round"/>
  <path d="M122 258 q-1 32 0 56 q0 8 8 8 q8 0 8 -8 q1 -24 -1 -56 z" fill="url(#dskin)" stroke="#5a4632" stroke-opacity="0.5" stroke-width="2.5" stroke-linejoin="round"/>
  <!-- clean shoes = level-up -->
  <ellipse cx="110" cy="326" rx="15" ry="9" fill="#7a3b2e" stroke="#5a4632" stroke-opacity="0.5" stroke-width="2"/>
  <ellipse cx="131" cy="326" rx="15" ry="9" fill="#7a3b2e" stroke="#5a4632" stroke-opacity="0.5" stroke-width="2"/>
  <path d="M86 134 q-9 36 -7 62 q0 9 8 9 q8 0 8 -9 q0 -26 5 -58 z" fill="url(#dskin)" stroke="#5a4632" stroke-opacity="0.5" stroke-width="2.5" stroke-linejoin="round"/>
  <path d="M154 134 q9 36 7 62 q0 9 -8 9 q-8 0 -8 -9 q0 -26 -5 -58 z" fill="url(#dskin)" stroke="#5a4632" stroke-opacity="0.5" stroke-width="2.5" stroke-linejoin="round"/>
  <circle cx="80" cy="206" r="9" fill="url(#dskin)" stroke="#5a4632" stroke-opacity="0.5" stroke-width="2.5"/>
  <circle cx="160" cy="206" r="9" fill="url(#dskin)" stroke="#5a4632" stroke-opacity="0.5" stroke-width="2.5"/>
  <!-- fuller Sunday skirt -->
  <path d="M92 190 q28 -8 56 0 q12 34 18 66 q-46 12 -92 0 q6 -32 18 -66 z" fill="url(#sunday)" stroke="#5a4632" stroke-opacity="0.5" stroke-width="2.5" stroke-linejoin="round"/>
  <path d="M90 118 q30 -12 60 0 l3 44 q1 20 -1 32 q-31 8 -64 0 q-2 -12 -1 -32 z" fill="url(#sunday)" stroke="#5a4632" stroke-opacity="0.5" stroke-width="2.5" stroke-linejoin="round"/>
  <path d="M88 120 q-13 3 -17 15 q9 8 20 6 q-1 -11 -3 -21" fill="url(#sunday)" stroke="#5a4632" stroke-opacity="0.5" stroke-width="2.5" stroke-linejoin="round"/>
  <path d="M152 120 q13 3 17 15 q-9 8 -20 6 q1 -11 3 -21" fill="url(#sunday)" stroke="#5a4632" stroke-opacity="0.5" stroke-width="2.5" stroke-linejoin="round"/>
  <path d="M94 190 q26 8 52 0" fill="none" stroke="#a84438" stroke-width="4" opacity="0.8"/>
  <path d="M96 194 l-4 -6 l4 -6 l4 6 z" fill="#a84438"/>
  <!-- floral sprigs -->
  <g fill="#b06a4e" opacity="0.6">
    <circle cx="110" cy="220" r="2.4"/><circle cx="115" cy="220" r="2.4"/><circle cx="112.5" cy="216" r="2.4"/><circle cx="112.5" cy="224" r="2.4"/>
    <circle cx="136" cy="232" r="2.4"/><circle cx="141" cy="232" r="2.4"/><circle cx="138.5" cy="228" r="2.4"/><circle cx="138.5" cy="236" r="2.4"/>
    <circle cx="120" cy="160" r="2.4"/><circle cx="125" cy="160" r="2.4"/><circle cx="122.5" cy="156" r="2.4"/><circle cx="122.5" cy="164" r="2.4"/>
  </g>
  <ellipse cx="104" cy="170" rx="12" ry="30" fill="#ffffff" opacity="0.3"/>
  <rect x="111" y="94" width="18" height="22" rx="7" fill="#b57e4e" stroke="#5a4632" stroke-opacity="0.4" stroke-width="2"/>
  <ellipse cx="120" cy="70" rx="33" ry="34" fill="url(#dskin)" stroke="#5a4632" stroke-opacity="0.5" stroke-width="2.5"/>
  <!-- ribbon -->
  <path d="M148 44 l14 -8 l-2 12 l12 4 l-14 6 l0 12 l-10 -8 l-10 8 l0 -12 l-12 -6 l12 -4 z" fill="#a84438" stroke="#5a4632" stroke-opacity="0.5" stroke-width="2" stroke-linejoin="round"/>
  <path d="M88 60 q4 -28 32 -30 q28 -2 32 30 q-3 -7 -9 -9 q0 9 -5 12 q-4 -7 -10 -8 q-1 8 -6 11 q-4 -7 -10 -8 q-2 8 -7 10 q-4 -6 -6 -12 q-5 2 -7 7 q-4 -6 -4 -3 z" fill="url(#dhair)" stroke="#5a4632" stroke-opacity="0.4" stroke-width="2" stroke-linejoin="round"/>
  <circle cx="108" cy="74" r="3.2" fill="#2e2620"/>
  <circle cx="132" cy="74" r="3.2" fill="#2e2620"/>
  <circle cx="109" cy="73" r="1" fill="#fff" opacity="0.8"/>
  <circle cx="133" cy="73" r="1" fill="#fff" opacity="0.8"/>
  <path d="M109 88 q11 8 22 0" fill="none" stroke="#5a3226" stroke-width="2.5" stroke-linecap="round"/>
  <ellipse cx="99" cy="83" rx="6" ry="4" fill="#d97f6a" opacity="0.4"/>
  <ellipse cx="141" cy="83" rx="6" ry="4" fill="#d97f6a" opacity="0.4"/>
</svg>
