<svg xmlns="http://www.w3.org/2000/svg" viewBox="0 0 240 360" role="img" aria-label="Apo girl starter: simple duster">
  <title>Apo (girl) — Simpleng Duster, starter 1990</title>
  <defs>
    <radialGradient id="gskin" cx="42%" cy="34%" r="75%">
      <stop offset="0%" stop-color="#d29a68"/>
      <stop offset="60%" stop-color="#c08a58"/>
      <stop offset="100%" stop-color="#a96f42"/>
    </radialGradient>
    <linearGradient id="duster" x1="0" y1="0" x2="0" y2="1">
      <stop offset="0%" stop-color="#dda991"/>
      <stop offset="100%" stop-color="#c08a72"/>
    </linearGradient>
    <linearGradient id="ghair" x1="0" y1="0" x2="0" y2="1">
      <stop offset="0%" stop-color="#4a382a"/>
      <stop offset="100%" stop-color="#2e2318"/>
    </linearGradient>
  </defs>
  <ellipse cx="120" cy="332" rx="54" ry="10" fill="#6b5a44" opacity="0.18"/>
  <!-- back hair (shoulder length) -->
  <path d="M84 60 q-4 60 4 96 q2 8 10 8 l4 0 q6 0 6 -8 l-2 -30 36 0 -2 30 q0 8 6 8 l4 0 q8 0 10 -8 q8 -36 4 -96 q-6 -30 -40 -30 q-34 0 -40 30 z" fill="url(#ghair)" stroke="#5a4632" stroke-opacity="0.4" stroke-width="2" stroke-linejoin="round"/>
  <!-- legs -->
  <path d="M102 262 q-2 30 -1 52 q0 8 8 8 q8 0 8 -8 q1 -22 1 -52 z" fill="url(#gskin)" stroke="#5a4632" stroke-opacity="0.5" stroke-width="2.5" stroke-linejoin="round"/>
  <path d="M122 262 q-1 30 0 52 q0 8 8 8 q8 0 8 -8 q1 -22 -1 -52 z" fill="url(#gskin)" stroke="#5a4632" stroke-opacity="0.5" stroke-width="2.5" stroke-linejoin="round"/>
  <ellipse cx="110" cy="327" rx="15" ry="7" fill="#7a5230" stroke="#5a4632" stroke-opacity="0.5" stroke-width="2"/>
  <path d="M110 320 l-5 6 M110 320 l5 6" stroke="#4a3826" stroke-width="2.5" stroke-linecap="round"/>
  <ellipse cx="131" cy="327" rx="15" ry="7" fill="#7a5230" stroke="#5a4632" stroke-opacity="0.5" stroke-width="2"/>
  <path d="M131 320 l-5 6 M131 320 l5 6" stroke="#4a3826" stroke-width="2.5" stroke-linecap="round"/>
  <!-- arms -->
  <path d="M86 134 q-9 36 -7 62 q0 9 8 9 q8 0 8 -9 q0 -26 5 -58 z" fill="url(#gskin)" stroke="#5a4632" stroke-opacity="0.5" stroke-width="2.5" stroke-linejoin="round"/>
  <path d="M154 134 q9 36 7 62 q0 9 -8 9 q-8 0 -8 -9 q0 -26 -5 -58 z" fill="url(#gskin)" stroke="#5a4632" stroke-opacity="0.5" stroke-width="2.5" stroke-linejoin="round"/>
  <circle cx="80" cy="206" r="9" fill="url(#gskin)" stroke="#5a4632" stroke-opacity="0.5" stroke-width="2.5"/>
  <circle cx="160" cy="206" r="9" fill="url(#gskin)" stroke="#5a4632" stroke-opacity="0.5" stroke-width="2.5"/>
  <!-- duster body -->
  <path d="M88 118 q32 -12 64 0 q10 40 16 76 q4 40 6 72 q-30 10 -108 0 q2 -32 6 -72 q6 -36 16 -76 z" fill="url(#duster)" stroke="#5a4632" stroke-opacity="0.5" stroke-width="2.5" stroke-linejoin="round"/>
  <!-- short sleeves -->
  <path d="M88 120 q-14 4 -18 18 q10 8 22 6 q-2 -12 -4 -24" fill="url(#duster)" stroke="#5a4632" stroke-opacity="0.5" stroke-width="2.5" stroke-linejoin="round"/>
  <path d="M152 120 q14 4 18 18 q-10 8 -22 6 q2 -12 4 -24" fill="url(#duster)" stroke="#5a4632" stroke-opacity="0.5" stroke-width="2.5" stroke-linejoin="round"/>
  <!-- neckline + hem -->
  <path d="M104 112 q16 14 32 0 q-4 10 -16 10 q-12 0 -16 -10" fill="#c08a58" stroke="#5a4632" stroke-opacity="0.5" stroke-width="2"/>
  <path d="M68 262 q26 10 52 6 q26 -4 52 -6" fill="none" stroke="#5a4632" stroke-opacity="0.35" stroke-width="2" stroke-dasharray="5 4"/>
  <!-- tiny floral pattern -->
  <g fill="#a06a58" opacity="0.55">
    <circle cx="104" cy="160" r="2.2"/><circle cx="109" cy="160" r="2.2"/><circle cx="106.5" cy="156" r="2.2"/><circle cx="106.5" cy="164" r="2.2"/><circle cx="106.5" cy="160" r="1.6" fill="#e8cfa8"/>
    <circle cx="136" cy="190" r="2.2"/><circle cx="141" cy="190" r="2.2"/><circle cx="138.5" cy="186" r="2.2"/><circle cx="138.5" cy="194" r="2.2"/><circle cx="138.5" cy="190" r="1.6" fill="#e8cfa8"/>
    <circle cx="112" cy="226" r="2.2"/><circle cx="117" cy="226" r="2.2"/><circle cx="114.5" cy="222" r="2.2"/><circle cx="114.5" cy="230" r="2.2"/><circle cx="114.5" cy="226" r="1.6" fill="#e8cfa8"/>
    <circle cx="142" cy="244" r="2.2"/><circle cx="147" cy="244" r="2.2"/><circle cx="144.5" cy="240" r="2.2"/><circle cx="144.5" cy="248" r="2.2"/><circle cx="144.5" cy="244" r="1.6" fill="#e8cfa8"/>
    <circle cx="94" cy="200" r="2.2"/><circle cx="99" cy="200" r="2.2"/><circle cx="96.5" cy="196" r="2.2"/><circle cx="96.5" cy="204" r="2.2"/><circle cx="96.5" cy="200" r="1.6" fill="#e8cfa8"/>
  </g>
  <g fill="#7d8450" opacity="0.5">
    <ellipse cx="122" cy="176" rx="3" ry="1.8"/><ellipse cx="128" cy="212" rx="3" ry="1.8"/><ellipse cx="100" cy="242" rx="3" ry="1.8"/>
  </g>
  <ellipse cx="100" cy="160" rx="13" ry="34" fill="#ffffff" opacity="0.22"/>
  <!-- neck + head -->
  <rect x="111" y="94" width="18" height="22" rx="7" fill="#b57e4e" stroke="#5a4632" stroke-opacity="0.4" stroke-width="2"/>
  <ellipse cx="120" cy="70" rx="33" ry="34" fill="url(#gskin)" stroke="#5a4632" stroke-opacity="0.5" stroke-width="2.5"/>
  <!-- side ponytail + scrunchie -->
  <path d="M150 66 q16 22 10 52 q-2 8 -9 7 q-7 -1 -7 -9 q3 -24 -4 -42 z" fill="url(#ghair)" stroke="#5a4632" stroke-opacity="0.4" stroke-width="2"/>
  <circle cx="147" cy="98" r="8" fill="#8fb0a5" stroke="#5a4632" stroke-opacity="0.5" stroke-width="2"/>
  <!-- fringe -->
  <path d="M88 60 q4 -28 32 -30 q28 -2 32 30 q-3 -7 -9 -9 q0 9 -5 12 q-4 -7 -10 -8 q-1 8 -6 11 q-4 -7 -10 -8 q-2 8 -7 10 q-4 -6 -6 -12 q-5 2 -7 7 q-4 -6 -4 -3 z" fill="url(#ghair)" stroke="#5a4632" stroke-opacity="0.4" stroke-width="2" stroke-linejoin="round"/>
  <!-- face -->
  <circle cx="108" cy="74" r="3.2" fill="#2e2620"/>
  <circle cx="132" cy="74" r="3.2" fill="#2e2620"/>
  <circle cx="109" cy="73" r="1" fill="#fff" opacity="0.8"/>
  <circle cx="133" cy="73" r="1" fill="#fff" opacity="0.8"/>
  <path d="M110 88 q10 7 20 0" fill="none" stroke="#5a3226" stroke-width="2.5" stroke-linecap="round"/>
  <ellipse cx="99" cy="83" rx="6" ry="4" fill="#d97f6a" opacity="0.35"/>
  <ellipse cx="141" cy="83" rx="6" ry="4" fill="#d97f6a" opacity="0.35"/>
  <!-- washes -->
  <ellipse cx="140" cy="180" rx="14" ry="34" fill="#8a5f4e" opacity="0.14"/>
</svg>
